<svg xmlns="http://www.w3.org/2000/svg" xmlns:xlink="http://www.w3.org/1999/xlink" zoomAndPan="magnify" preserveAspectRatio="xMidYMid meet" version="1.0" viewBox="75.26 75.84 418.8 103.5"><defs><g/><clipPath id="42a0fa3a84"><path d="M 75.257812 112 L 154 112 L 154 130 L 75.257812 130 Z M 75.257812 112 " clip-rule="nonzero"/></clipPath><clipPath id="d315a5340a"><path d="M 89 115 L 192 115 L 192 179.339844 L 89 179.339844 Z M 89 115 " clip-rule="nonzero"/></clipPath><clipPath id="a6de6f4461"><path d="M 194 75.839844 L 226 75.839844 L 226 107 L 194 107 Z M 194 75.839844 " clip-rule="nonzero"/></clipPath></defs><path fill="#1e6c97" d="M 119.757812 149.054688 C 142.378906 141.761719 162.796875 131.71875 180.589844 118.40625 C 183.269531 116.402344 185.886719 114.328125 188.441406 112.171875 C 192.828125 108.480469 197.035156 104.566406 201.054688 100.421875 C 197.367188 105.796875 193.46875 110.75 189.390625 115.339844 C 186.832031 118.21875 184.207031 120.953125 181.515625 123.558594 C 163.480469 141.019531 142.558594 152.734375 120.867188 162.917969 L 119.757812 149.058594 Z M 119.757812 149.054688 " fill-opacity="1" fill-rule="evenodd"/><g clip-path="url(#42a0fa3a84)"><path fill="#43c3d8" d="M 153.328125 120.398438 C 134.847656 128.507812 116.574219 131.3125 98.488281 129.175781 C 95.386719 128.8125 92.292969 128.300781 89.207031 127.644531 C 84.558594 126.664062 79.921875 125.355469 75.300781 123.730469 L 85.714844 112.949219 C 87.476562 113.640625 89.242188 114.296875 91.007812 114.917969 C 93.953125 115.949219 96.90625 116.875 99.871094 117.699219 C 117.320312 122.53125 135.117188 123.664062 153.328125 120.398438 Z M 153.328125 120.398438 " fill-opacity="1" fill-rule="evenodd"/></g><g clip-path="url(#d315a5340a)"><path fill="#1e6c97" d="M 102.820312 146.90625 C 103.835938 148.949219 105.035156 150.9375 106.417969 152.847656 C 109.019531 156.4375 112.085938 159.488281 115.476562 161.976562 C 129.605469 172.585938 149.699219 172.921875 164.59375 162.113281 C 175.15625 154.441406 181.0625 142.734375 181.726562 130.632812 C 182.894531 129.566406 184.054688 128.476562 185.199219 127.371094 C 187.0625 125.5625 188.882812 123.714844 190.652344 121.820312 C 192.957031 139.71875 185.667969 158.289062 170.042969 169.628906 C 147.277344 186.15625 115.417969 181.082031 98.90625 158.300781 C 93.339844 150.625 90.226562 141.914062 89.414062 133.101562 C 92.210938 133.660156 95.03125 134.109375 97.867188 134.445312 C 98.222656 134.484375 98.582031 134.527344 98.9375 134.5625 C 109.835938 135.738281 120.53125 135.167969 130.984375 133.070312 C 145.835938 130.378906 160.484375 124.734375 174.914062 115.996094 C 153.0625 131.730469 129.066406 141.941406 102.820312 146.90625 Z M 102.820312 146.90625 " fill-opacity="1" fill-rule="evenodd"/></g><path fill="#43c3d8" d="M 173.851562 103.902344 C 160.347656 85.273438 134.296875 81.125 115.679688 94.640625 C 109.136719 99.386719 104.382812 105.683594 101.554688 112.660156 C 101.464844 112.636719 101.375 112.613281 101.289062 112.585938 C 98.417969 111.792969 95.574219 110.898438 92.761719 109.914062 C 92.730469 109.902344 92.699219 109.890625 92.667969 109.878906 C 96.089844 101.058594 102.007812 93.089844 110.226562 87.121094 C 132.996094 70.59375 164.851562 75.671875 181.367188 98.449219 C 183.339844 101.175781 185.007812 104.03125 186.371094 106.972656 C 185.929688 107.355469 185.480469 107.738281 185.03125 108.113281 C 183.019531 109.808594 180.96875 111.453125 178.882812 113.050781 C 177.625 109.871094 175.953125 106.796875 173.851562 103.902344 Z M 173.851562 103.902344 " fill-opacity="1" fill-rule="evenodd"/><g clip-path="url(#a6de6f4461)"><path fill="#1e6c97" d="M 194.804688 91.703125 L 194.742188 91.769531 C 194.601562 91.910156 194.585938 91.878906 194.449219 92.070312 L 194.410156 92.132812 C 194.167969 92.4375 194.285156 93.019531 194.457031 93.285156 C 194.660156 93.589844 195 93.6875 195.398438 93.871094 C 196.089844 94.191406 196.800781 94.519531 197.496094 94.820312 C 198.878906 95.414062 200.296875 96.132812 201.6875 96.699219 C 201.835938 96.632812 203.691406 95.105469 204.035156 94.820312 C 204.191406 94.6875 204.339844 94.597656 204.5 94.46875 C 204.824219 94.214844 205.085938 93.972656 205.414062 93.714844 L 216.527344 84.730469 L 216.792969 84.5 C 216.847656 84.449219 216.800781 84.488281 216.863281 84.445312 L 220.5 81.535156 C 220.519531 81.375 220.445312 81.472656 220.742188 81.335938 C 220.671875 81.488281 220.578125 81.5625 220.484375 81.675781 L 220.195312 82 C 220.015625 82.117188 219.453125 82.816406 219.292969 83.003906 L 219.140625 83.21875 C 219.078125 83.28125 219.09375 83.265625 219.046875 83.324219 L 218.664062 83.734375 C 218.660156 83.726562 218.648438 83.746094 218.640625 83.753906 C 218.203125 84.25 217.746094 84.792969 217.304688 85.292969 C 217.082031 85.546875 216.851562 85.816406 216.632812 86.066406 C 216.441406 86.285156 216.125 86.597656 215.984375 86.8125 C 215.902344 86.980469 215.957031 86.855469 215.839844 86.992188 L 215.398438 87.464844 L 212.742188 90.523438 L 212.085938 91.277344 L 212.078125 91.261719 C 212.046875 91.316406 212.035156 91.351562 212 91.398438 L 211.425781 92.007812 C 210.703125 92.816406 210.039062 93.613281 209.328125 94.425781 C 208.621094 95.234375 207.898438 96.023438 207.214844 96.828125 C 207.101562 97.03125 206.734375 97.449219 206.5625 97.578125 C 206.34375 97.820312 206.160156 98.066406 205.9375 98.304688 C 204.96875 99.339844 205.195312 99.039062 205.152344 100.289062 L 205.015625 104.378906 C 205 104.765625 204.929688 105.335938 205.058594 105.660156 C 205.171875 105.941406 205.453125 106.21875 205.761719 106.320312 C 206.65625 106.609375 207.101562 105.761719 207.457031 105.382812 C 207.6875 105.140625 211.128906 101.246094 211.269531 101.027344 C 211.519531 101.078125 212.078125 101.363281 212.347656 101.484375 L 215.425781 102.863281 C 216.121094 103.164062 216.796875 103.488281 217.472656 103.78125 C 217.929688 103.980469 219.132812 104.625 219.613281 104.589844 C 220.613281 104.519531 220.640625 103.515625 220.785156 102.816406 L 222.285156 95.351562 C 222.960938 92.011719 223.632812 88.710938 224.292969 85.382812 L 225.796875 77.910156 C 225.871094 77.550781 226.039062 77 225.925781 76.632812 C 225.835938 76.324219 225.550781 76.011719 225.21875 75.898438 C 224.761719 75.742188 224.371094 75.953125 224.074219 76.109375 L 219.339844 78.632812 C 218.714844 78.980469 218.09375 79.320312 217.453125 79.640625 C 216.230469 80.253906 214.921875 81.015625 213.679688 81.65625 C 213.078125 81.972656 212.390625 82.316406 211.789062 82.660156 L 208.949219 84.179688 C 208.011719 84.644531 207.023438 85.238281 206.128906 85.679688 C 205.8125 85.832031 205.492188 86.011719 205.171875 86.1875 L 200.460938 88.691406 C 199.304688 89.316406 197.820312 90.140625 196.6875 90.707031 C 196.050781 91.023438 195.425781 91.429688 194.804688 91.703125 Z M 194.804688 91.703125 " fill-opacity="1" fill-rule="evenodd"/></g><path fill="#1e6c97" d="M 220.503906 81.535156 C 220.480469 81.660156 220.457031 81.675781 220.375 81.753906 C 220.257812 81.867188 220.269531 81.875 220.195312 82 L 220.488281 81.675781 C 220.582031 81.5625 220.675781 81.488281 220.742188 81.335938 C 220.449219 81.46875 220.519531 81.375 220.5 81.535156 Z M 220.503906 81.535156 " fill-opacity="1" fill-rule="evenodd"/><path fill="#1e6c97" d="M 206.5625 97.578125 C 206.738281 97.449219 207.105469 97.03125 207.214844 96.828125 L 206.714844 97.398438 C 206.609375 97.511719 206.640625 97.441406 206.5625 97.578125 Z M 206.5625 97.578125 " fill-opacity="1" fill-rule="evenodd"/><path fill="#1e6c97" d="M 218.640625 83.753906 C 218.648438 83.746094 218.664062 83.726562 218.667969 83.734375 L 219.050781 83.324219 C 219.097656 83.265625 219.078125 83.28125 219.144531 83.21875 L 219.292969 83.003906 C 219.222656 83.054688 219.285156 82.980469 219.203125 83.085938 L 218.808594 83.550781 C 218.707031 83.671875 218.714844 83.613281 218.640625 83.753906 Z M 218.640625 83.753906 " fill-opacity="1" fill-rule="evenodd"/><path fill="#1e6c97" d="M 211.429688 92.011719 L 212.003906 91.402344 C 212.039062 91.351562 212.050781 91.320312 212.082031 91.261719 C 212.015625 91.308594 212.050781 91.269531 211.992188 91.34375 Z M 211.429688 92.011719 " fill-opacity="1" fill-rule="evenodd"/><path fill="#1e6c97" d="M 212.089844 91.277344 L 212.742188 90.523438 C 212.570312 90.65625 212.191406 91.101562 212.089844 91.277344 Z M 212.089844 91.277344 " fill-opacity="1" fill-rule="evenodd"/><path fill="#1e6c97" d="M 194.410156 92.128906 L 194.453125 92.070312 C 194.589844 91.878906 194.601562 91.910156 194.742188 91.769531 L 194.804688 91.703125 C 194.710938 91.746094 194.785156 91.699219 194.679688 91.78125 C 194.609375 91.835938 194.632812 91.8125 194.574219 91.871094 C 194.507812 91.9375 194.457031 92 194.410156 92.128906 Z M 194.410156 92.128906 " fill-opacity="1" fill-rule="evenodd"/><path fill="#1e6c97" d="M 215.398438 87.464844 L 215.839844 86.992188 C 215.960938 86.855469 215.90625 86.980469 215.988281 86.8125 Z M 215.398438 87.464844 " fill-opacity="1" fill-rule="evenodd"/><path fill="#1e6c97" d="M 216.53125 84.730469 L 216.867188 84.445312 C 216.800781 84.488281 216.851562 84.449219 216.796875 84.5 Z M 216.53125 84.730469 " fill-opacity="1" fill-rule="evenodd"/><g fill="#323131" fill-opacity="1"><g transform="translate(226.810083, 127.810397)"><g><path d="M 13 -24.265625 L 19.875 -24.265625 L 13.90625 0 L 6.234375 0 L 0.265625 -24.265625 L 7.140625 -24.265625 L 10.046875 -8.046875 Z M 13 -24.265625 "/></g></g></g><g fill="#323131" fill-opacity="1"><g transform="translate(246.957459, 127.810397)"><g><path d="M 1.40625 -20.75 L 1.40625 -25.28125 L 8.046875 -25.28125 L 8.046875 -20.75 Z M 7.9375 0 L 1.515625 0 L 1.515625 -18.859375 L 7.9375 -18.859375 Z M 7.9375 0 "/></g></g></g><g fill="#323131" fill-opacity="1"><g transform="translate(256.407448, 127.810397)"><g><path d="M 11.90625 -19.046875 L 12.46875 -19.046875 L 12.46875 -13.453125 L 10.3125 -13.453125 C 8.726562 -13.453125 7.9375 -12.597656 7.9375 -10.890625 L 7.9375 0 L 1.515625 0 L 1.515625 -18.859375 L 7.828125 -18.859375 L 7.828125 -15.953125 C 8.023438 -16.910156 8.476562 -17.664062 9.1875 -18.21875 C 9.894531 -18.769531 10.800781 -19.046875 11.90625 -19.046875 Z M 11.90625 -19.046875 "/></g></g></g><g fill="#323131" fill-opacity="1"><g transform="translate(269.070432, 127.810397)"><g><path d="M 11.078125 -14.140625 L 8.6875 -14.140625 L 8.6875 -5.5625 C 8.6875 -5 9.003906 -4.71875 9.640625 -4.71875 L 11.03125 -4.71875 L 11.03125 0 L 7.828125 0 C 4.117188 0 2.265625 -1.5625 2.265625 -4.6875 L 2.265625 -14.140625 L 0.1875 -14.140625 L 0.1875 -18.859375 L 2.265625 -18.859375 L 2.265625 -22.5625 L 8.6875 -22.5625 L 8.6875 -18.859375 L 11.078125 -18.859375 Z M 11.078125 -14.140625 "/></g></g></g><g fill="#323131" fill-opacity="1"><g transform="translate(280.523816, 127.810397)"><g><path d="M 10.359375 -18.859375 L 16.78125 -18.859375 L 16.78125 0 L 10.46875 0 L 10.46875 -2.421875 C 10.113281 -0.804688 8.96875 0 7.03125 0 L 6.34375 0 C 3 0 1.328125 -1.5625 1.328125 -4.6875 L 1.328125 -18.859375 L 7.75 -18.859375 L 7.75 -5.5625 C 7.75 -5 8.0625 -4.71875 8.6875 -4.71875 L 9.328125 -4.71875 C 10.015625 -4.71875 10.359375 -5.097656 10.359375 -5.859375 Z M 10.359375 -18.859375 "/></g></g></g><g fill="#323131" fill-opacity="1"><g transform="translate(298.819, 127.810397)"><g><path d="M 10.28125 -18.859375 L 16.59375 -18.859375 L 16.59375 0 L 10.171875 0 L 10.171875 -2.046875 C 9.691406 -0.679688 8.582031 0 6.84375 0 L 6.15625 0 C 2.8125 0 1.140625 -1.5625 1.140625 -4.6875 L 1.140625 -14.171875 C 1.140625 -17.296875 2.8125 -18.859375 6.15625 -18.859375 L 6.84375 -18.859375 C 8.78125 -18.859375 9.925781 -18.050781 10.28125 -16.4375 Z M 8.5 -4.71875 L 9.140625 -4.71875 C 9.828125 -4.71875 10.171875 -5.097656 10.171875 -5.859375 L 10.171875 -13 C 10.171875 -13.757812 9.828125 -14.140625 9.140625 -14.140625 L 8.5 -14.140625 C 7.875 -14.140625 7.5625 -13.859375 7.5625 -13.296875 L 7.5625 -5.5625 C 7.5625 -5 7.875 -4.71875 8.5 -4.71875 Z M 8.5 -4.71875 "/></g></g></g><g fill="#323131" fill-opacity="1"><g transform="translate(316.925182, 127.810397)"><g><path d="M 7.9375 0 L 1.515625 0 L 1.515625 -25.28125 L 7.9375 -25.28125 Z M 7.9375 0 "/></g></g></g><g fill="#323131" fill-opacity="1"><g transform="translate(326.375171, 127.810397)"><g><path d="M 16.140625 -24.265625 L 16.140625 -19.546875 L 11.453125 -19.546875 L 11.453125 0 L 4.84375 0 L 4.84375 -19.546875 L 0.1875 -19.546875 L 0.1875 -24.265625 Z M 16.140625 -24.265625 "/></g></g></g><g fill="#323131" fill-opacity="1"><g transform="translate(342.704759, 127.810397)"><g><path d="M 6.6875 -18.859375 L 11.296875 -18.859375 C 15.003906 -18.859375 16.859375 -17.296875 16.859375 -14.171875 L 16.859375 -7.75 L 7.21875 -7.75 L 7.21875 -5.25 C 7.21875 -4.695312 7.535156 -4.421875 8.171875 -4.421875 L 9.828125 -4.421875 C 10.453125 -4.421875 10.765625 -4.722656 10.765625 -5.328125 L 10.765625 -6.390625 L 16.859375 -6.390625 L 16.859375 -4.6875 C 16.859375 -1.5625 15.003906 0 11.296875 0 L 6.6875 0 C 2.988281 0 1.140625 -1.5625 1.140625 -4.6875 L 1.140625 -14.171875 C 1.140625 -17.296875 2.988281 -18.859375 6.6875 -18.859375 Z M 7.21875 -11.21875 L 10.765625 -11.21875 L 10.765625 -13.609375 C 10.765625 -14.160156 10.453125 -14.4375 9.828125 -14.4375 L 8.171875 -14.4375 C 7.535156 -14.4375 7.21875 -14.160156 7.21875 -13.609375 Z M 7.21875 -11.21875 "/></g></g></g><g fill="#323131" fill-opacity="1"><g transform="translate(360.508544, 127.810397)"><g><path d="M 16.296875 -11.5625 L 10.09375 -11.5625 L 10.09375 -13.296875 C 10.09375 -13.859375 9.773438 -14.140625 9.140625 -14.140625 L 8.5 -14.140625 C 7.875 -14.140625 7.5625 -13.859375 7.5625 -13.296875 L 7.5625 -5.5625 C 7.5625 -5 7.875 -4.71875 8.5 -4.71875 L 9.140625 -4.71875 C 9.773438 -4.71875 10.09375 -5 10.09375 -5.5625 L 10.09375 -7.296875 L 16.296875 -7.296875 L 16.296875 -4.6875 C 16.296875 -1.5625 14.441406 0 10.734375 0 L 6.6875 0 C 2.988281 0 1.140625 -1.5625 1.140625 -4.6875 L 1.140625 -14.171875 C 1.140625 -17.296875 2.988281 -18.859375 6.6875 -18.859375 L 10.734375 -18.859375 C 14.441406 -18.859375 16.296875 -17.296875 16.296875 -14.171875 Z M 16.296875 -11.5625 "/></g></g></g><g fill="#323131" fill-opacity="1"><g transform="translate(377.556321, 127.810397)"><g><path d="M 11.265625 -18.859375 L 11.9375 -18.859375 C 15.289062 -18.859375 16.96875 -17.296875 16.96875 -14.171875 L 16.96875 0 L 10.546875 0 L 10.546875 -13.296875 C 10.546875 -13.859375 10.226562 -14.140625 9.59375 -14.140625 L 8.953125 -14.140625 C 8.273438 -14.140625 7.9375 -13.757812 7.9375 -13 L 7.9375 0 L 1.515625 0 L 1.515625 -25.28125 L 7.9375 -25.28125 L 7.9375 -16.8125 C 8.414062 -18.175781 9.523438 -18.859375 11.265625 -18.859375 Z M 11.265625 -18.859375 "/></g></g></g><g fill="#323131" fill-opacity="1"><g transform="translate(395.851514, 127.810397)"><g><path d="M 10.8125 -5.5625 L 10.8125 -9 C 10.8125 -9.550781 10.492188 -9.828125 9.859375 -9.828125 L 6.234375 -9.828125 C 4.367188 -9.828125 3.050781 -10.234375 2.28125 -11.046875 C 1.519531 -11.867188 1.140625 -13.050781 1.140625 -14.59375 L 1.140625 -19.578125 C 1.140625 -22.703125 2.976562 -24.265625 6.65625 -24.265625 L 11.828125 -24.265625 C 15.503906 -24.265625 17.34375 -22.703125 17.34375 -19.578125 L 17.34375 -16.671875 L 10.734375 -16.671875 L 10.734375 -18.703125 C 10.734375 -19.265625 10.421875 -19.546875 9.796875 -19.546875 L 8.6875 -19.546875 C 8.0625 -19.546875 7.75 -19.265625 7.75 -18.703125 L 7.75 -15.125 C 7.75 -14.5625 8.0625 -14.28125 8.6875 -14.28125 L 12.25 -14.28125 C 14.113281 -14.28125 15.441406 -13.890625 16.234375 -13.109375 C 17.023438 -12.328125 17.421875 -11.179688 17.421875 -9.671875 L 17.421875 -4.6875 C 17.421875 -1.5625 15.582031 0 11.90625 0 L 6.765625 0 C 3.054688 0 1.203125 -1.5625 1.203125 -4.6875 L 1.203125 -7.59375 L 7.828125 -7.59375 L 7.828125 -5.5625 C 7.828125 -5 8.140625 -4.71875 8.765625 -4.71875 L 9.859375 -4.71875 C 10.492188 -4.71875 10.8125 -5 10.8125 -5.5625 Z M 10.8125 -5.5625 "/></g></g></g><g fill="#323131" fill-opacity="1"><g transform="translate(414.411288, 127.810397)"><g><path d="M 16.296875 -11.5625 L 10.09375 -11.5625 L 10.09375 -13.296875 C 10.09375 -13.859375 9.773438 -14.140625 9.140625 -14.140625 L 8.5 -14.140625 C 7.875 -14.140625 7.5625 -13.859375 7.5625 -13.296875 L 7.5625 -5.5625 C 7.5625 -5 7.875 -4.71875 8.5 -4.71875 L 9.140625 -4.71875 C 9.773438 -4.71875 10.09375 -5 10.09375 -5.5625 L 10.09375 -7.296875 L 16.296875 -7.296875 L 16.296875 -4.6875 C 16.296875 -1.5625 14.441406 0 10.734375 0 L 6.6875 0 C 2.988281 0 1.140625 -1.5625 1.140625 -4.6875 L 1.140625 -14.171875 C 1.140625 -17.296875 2.988281 -18.859375 6.6875 -18.859375 L 10.734375 -18.859375 C 14.441406 -18.859375 16.296875 -17.296875 16.296875 -14.171875 Z M 16.296875 -11.5625 "/></g></g></g><g fill="#323131" fill-opacity="1"><g transform="translate(431.459065, 127.810397)"><g><path d="M 11.265625 -18.859375 L 11.9375 -18.859375 C 15.289062 -18.859375 16.96875 -17.296875 16.96875 -14.171875 L 16.96875 0 L 10.546875 0 L 10.546875 -13.296875 C 10.546875 -13.859375 10.226562 -14.140625 9.59375 -14.140625 L 8.953125 -14.140625 C 8.273438 -14.140625 7.9375 -13.757812 7.9375 -13 L 7.9375 0 L 1.515625 0 L 1.515625 -25.28125 L 7.9375 -25.28125 L 7.9375 -16.8125 C 8.414062 -18.175781 9.523438 -18.859375 11.265625 -18.859375 Z M 11.265625 -18.859375 "/></g></g></g><g fill="#323131" fill-opacity="1"><g transform="translate(449.754249, 127.810397)"><g><path d="M 6.6875 -18.859375 L 11.484375 -18.859375 C 13.398438 -18.859375 14.773438 -18.453125 15.609375 -17.640625 C 16.441406 -16.835938 16.859375 -15.679688 16.859375 -14.171875 L 16.859375 -4.6875 C 16.859375 -3.175781 16.441406 -2.015625 15.609375 -1.203125 C 14.773438 -0.398438 13.398438 0 11.484375 0 L 6.6875 0 C 4.769531 0 3.394531 -0.398438 2.5625 -1.203125 C 1.738281 -2.015625 1.328125 -3.175781 1.328125 -4.6875 L 1.328125 -14.171875 C 1.328125 -15.679688 1.738281 -16.835938 2.5625 -17.640625 C 3.394531 -18.453125 4.769531 -18.859375 6.6875 -18.859375 Z M 10.546875 -5.296875 L 10.546875 -13.5625 C 10.546875 -14.125 10.226562 -14.40625 9.59375 -14.40625 L 8.578125 -14.40625 C 7.953125 -14.40625 7.640625 -14.125 7.640625 -13.5625 L 7.640625 -5.296875 C 7.640625 -4.734375 7.953125 -4.453125 8.578125 -4.453125 L 9.59375 -4.453125 C 10.226562 -4.453125 10.546875 -4.734375 10.546875 -5.296875 Z M 10.546875 -5.296875 "/></g></g></g><g fill="#323131" fill-opacity="1"><g transform="translate(467.936019, 127.810397)"><g><path d="M 6.6875 -18.859375 L 11.484375 -18.859375 C 13.398438 -18.859375 14.773438 -18.453125 15.609375 -17.640625 C 16.441406 -16.835938 16.859375 -15.679688 16.859375 -14.171875 L 16.859375 -4.6875 C 16.859375 -3.175781 16.441406 -2.015625 15.609375 -1.203125 C 14.773438 -0.398438 13.398438 0 11.484375 0 L 6.6875 0 C 4.769531 0 3.394531 -0.398438 2.5625 -1.203125 C 1.738281 -2.015625 1.328125 -3.175781 1.328125 -4.6875 L 1.328125 -14.171875 C 1.328125 -15.679688 1.738281 -16.835938 2.5625 -17.640625 C 3.394531 -18.453125 4.769531 -18.859375 6.6875 -18.859375 Z M 10.546875 -5.296875 L 10.546875 -13.5625 C 10.546875 -14.125 10.226562 -14.40625 9.59375 -14.40625 L 8.578125 -14.40625 C 7.953125 -14.40625 7.640625 -14.125 7.640625 -13.5625 L 7.640625 -5.296875 C 7.640625 -4.734375 7.953125 -4.453125 8.578125 -4.453125 L 9.59375 -4.453125 C 10.226562 -4.453125 10.546875 -4.734375 10.546875 -5.296875 Z M 10.546875 -5.296875 "/></g></g></g><g fill="#323131" fill-opacity="1"><g transform="translate(486.117807, 127.810397)"><g><path d="M 7.9375 0 L 1.515625 0 L 1.515625 -25.28125 L 7.9375 -25.28125 Z M 7.9375 0 "/></g></g></g><g fill="#323131" fill-opacity="1"><g transform="translate(245.219079, 152.738442)"><g><path d="M 0.46875 -14.296875 L 10.796875 -14.296875 L 10.796875 -11.515625 L 7.15625 -11.515625 L 7.15625 0 L 4.109375 0 L 4.109375 -11.515625 L 0.46875 -11.515625 Z M 0.46875 -14.296875 "/></g></g></g><g fill="#323131" fill-opacity="1"><g transform="translate(256.589337, 152.738442)"><g><path d="M 6.46875 -10.28125 C 7.125 -10.28125 7.738281 -10.140625 8.3125 -9.859375 C 8.882812 -9.585938 9.378906 -9.210938 9.796875 -8.734375 C 10.210938 -8.253906 10.535156 -7.695312 10.765625 -7.0625 C 11.003906 -6.425781 11.125 -5.742188 11.125 -5.015625 L 11.125 0 L 8.40625 0 L 8.40625 -1.828125 C 8.40625 -2.335938 8.40625 -2.863281 8.40625 -3.40625 C 8.414062 -3.957031 8.421875 -4.425781 8.421875 -4.8125 C 8.421875 -5.1875 8.359375 -5.554688 8.234375 -5.921875 C 8.117188 -6.285156 7.953125 -6.601562 7.734375 -6.875 C 7.523438 -7.15625 7.273438 -7.378906 6.984375 -7.546875 C 6.691406 -7.710938 6.382812 -7.796875 6.0625 -7.796875 C 5.757812 -7.796875 5.460938 -7.738281 5.171875 -7.625 C 4.890625 -7.507812 4.640625 -7.34375 4.421875 -7.125 C 4.210938 -6.90625 4.046875 -6.625 3.921875 -6.28125 C 3.796875 -5.945312 3.734375 -5.550781 3.734375 -5.09375 L 3.734375 0 L 0.921875 0 L 0.921875 -14.71875 L 3.734375 -14.71875 L 3.734375 -9.234375 C 4.078125 -9.566406 4.472656 -9.820312 4.921875 -10 C 5.378906 -10.1875 5.894531 -10.28125 6.46875 -10.28125 Z M 6.46875 -10.28125 "/></g></g></g><g fill="#323131" fill-opacity="1"><g transform="translate(268.1612, 152.738442)"><g><path d="M 5.84375 -10.28125 C 6.59375 -10.28125 7.273438 -10.128906 7.890625 -9.828125 C 8.515625 -9.523438 9.046875 -9.128906 9.484375 -8.640625 C 9.929688 -8.148438 10.273438 -7.582031 10.515625 -6.9375 C 10.765625 -6.300781 10.890625 -5.648438 10.890625 -4.984375 C 10.890625 -4.578125 10.832031 -4.144531 10.71875 -3.6875 L 3.59375 -3.6875 C 3.851562 -3.226562 4.234375 -2.84375 4.734375 -2.53125 C 5.234375 -2.21875 5.769531 -2.0625 6.34375 -2.0625 C 6.925781 -2.0625 7.4375 -2.109375 7.875 -2.203125 C 8.3125 -2.296875 8.722656 -2.414062 9.109375 -2.5625 L 10.03125 -0.84375 C 9.539062 -0.5 8.972656 -0.234375 8.328125 -0.046875 C 7.691406 0.140625 7.007812 0.234375 6.28125 0.234375 C 5.488281 0.234375 4.75 0.0976562 4.0625 -0.171875 C 3.382812 -0.441406 2.789062 -0.8125 2.28125 -1.28125 C 1.769531 -1.757812 1.363281 -2.320312 1.0625 -2.96875 C 0.769531 -3.613281 0.625 -4.296875 0.625 -5.015625 C 0.625 -5.734375 0.757812 -6.410156 1.03125 -7.046875 C 1.300781 -7.679688 1.671875 -8.238281 2.140625 -8.71875 C 2.617188 -9.195312 3.171875 -9.578125 3.796875 -9.859375 C 4.429688 -10.140625 5.113281 -10.28125 5.84375 -10.28125 Z M 8.125 -5.84375 C 7.957031 -6.425781 7.664062 -6.894531 7.25 -7.25 C 6.832031 -7.613281 6.363281 -7.796875 5.84375 -7.796875 C 5.300781 -7.796875 4.8125 -7.613281 4.375 -7.25 C 3.945312 -6.894531 3.648438 -6.425781 3.484375 -5.84375 Z M 8.125 -5.84375 "/></g></g></g><g fill="#323131" fill-opacity="1"><g transform="translate(280.257223, 152.738442)"><g/></g></g><g fill="#323131" fill-opacity="1"><g transform="translate(285.902034, 152.738442)"><g><path d="M 11.234375 -10.03125 C 11.234375 -9.582031 11.164062 -9.148438 11.03125 -8.734375 C 10.90625 -8.328125 10.726562 -7.953125 10.5 -7.609375 C 10.269531 -7.265625 9.992188 -6.960938 9.671875 -6.703125 C 9.347656 -6.441406 9 -6.226562 8.625 -6.0625 L 13.359375 0 L 9.796875 0 L 5.375 -5.765625 L 4.015625 -5.765625 L 4.015625 0 L 0.953125 0 L 0.953125 -14.296875 L 7.109375 -14.296875 C 7.679688 -14.296875 8.21875 -14.179688 8.71875 -13.953125 C 9.21875 -13.734375 9.648438 -13.429688 10.015625 -13.046875 C 10.390625 -12.671875 10.6875 -12.222656 10.90625 -11.703125 C 11.125 -11.179688 11.234375 -10.625 11.234375 -10.03125 Z M 6.734375 -8.546875 C 7.117188 -8.546875 7.453125 -8.6875 7.734375 -8.96875 C 8.015625 -9.257812 8.15625 -9.613281 8.15625 -10.03125 C 8.15625 -10.4375 8.015625 -10.785156 7.734375 -11.078125 C 7.453125 -11.367188 7.117188 -11.515625 6.734375 -11.515625 L 4.015625 -11.515625 L 4.015625 -8.546875 Z M 6.734375 -8.546875 "/></g></g></g><g fill="#323131" fill-opacity="1"><g transform="translate(299.852779, 152.738442)"><g><path d="M 5.828125 -10.28125 C 6.535156 -10.28125 7.203125 -10.140625 7.828125 -9.859375 C 8.460938 -9.585938 9.015625 -9.210938 9.484375 -8.734375 C 9.960938 -8.253906 10.335938 -7.695312 10.609375 -7.0625 C 10.890625 -6.425781 11.03125 -5.742188 11.03125 -5.015625 C 11.03125 -4.296875 10.890625 -3.613281 10.609375 -2.96875 C 10.335938 -2.332031 9.960938 -1.773438 9.484375 -1.296875 C 9.015625 -0.816406 8.460938 -0.441406 7.828125 -0.171875 C 7.203125 0.0976562 6.535156 0.234375 5.828125 0.234375 C 5.097656 0.234375 4.414062 0.0976562 3.78125 -0.171875 C 3.15625 -0.441406 2.609375 -0.816406 2.140625 -1.296875 C 1.671875 -1.773438 1.296875 -2.332031 1.015625 -2.96875 C 0.742188 -3.613281 0.609375 -4.296875 0.609375 -5.015625 C 0.609375 -5.742188 0.742188 -6.425781 1.015625 -7.0625 C 1.296875 -7.695312 1.671875 -8.253906 2.140625 -8.734375 C 2.609375 -9.210938 3.15625 -9.585938 3.78125 -9.859375 C 4.414062 -10.140625 5.097656 -10.28125 5.828125 -10.28125 Z M 5.828125 -2.203125 C 6.160156 -2.203125 6.472656 -2.265625 6.765625 -2.390625 C 7.054688 -2.523438 7.3125 -2.710938 7.53125 -2.953125 C 7.75 -3.191406 7.921875 -3.472656 8.046875 -3.796875 C 8.179688 -4.128906 8.25 -4.492188 8.25 -4.890625 C 8.25 -5.296875 8.179688 -5.671875 8.046875 -6.015625 C 7.921875 -6.367188 7.75 -6.675781 7.53125 -6.9375 C 7.3125 -7.207031 7.054688 -7.414062 6.765625 -7.5625 C 6.472656 -7.71875 6.160156 -7.796875 5.828125 -7.796875 C 5.492188 -7.796875 5.175781 -7.71875 4.875 -7.5625 C 4.582031 -7.414062 4.320312 -7.207031 4.09375 -6.9375 C 3.875 -6.675781 3.703125 -6.367188 3.578125 -6.015625 C 3.453125 -5.671875 3.390625 -5.296875 3.390625 -4.890625 C 3.390625 -4.492188 3.453125 -4.128906 3.578125 -3.796875 C 3.703125 -3.472656 3.875 -3.191406 4.09375 -2.953125 C 4.320312 -2.710938 4.582031 -2.523438 4.875 -2.390625 C 5.175781 -2.265625 5.492188 -2.203125 5.828125 -2.203125 Z M 5.828125 -2.203125 "/></g></g></g><g fill="#323131" fill-opacity="1"><g transform="translate(311.525447, 152.738442)"><g><path d="M 11.375 -10 L 11.375 0 L 8.96875 0 L 8.6875 -1.0625 C 8.300781 -0.539062 7.832031 -0.191406 7.28125 -0.015625 C 6.738281 0.148438 6.171875 0.234375 5.578125 0.234375 C 4.867188 0.234375 4.210938 0.0976562 3.609375 -0.171875 C 3.015625 -0.441406 2.492188 -0.816406 2.046875 -1.296875 C 1.609375 -1.773438 1.265625 -2.332031 1.015625 -2.96875 C 0.765625 -3.613281 0.640625 -4.296875 0.640625 -5.015625 C 0.640625 -5.742188 0.765625 -6.425781 1.015625 -7.0625 C 1.265625 -7.695312 1.609375 -8.253906 2.046875 -8.734375 C 2.492188 -9.210938 3.015625 -9.585938 3.609375 -9.859375 C 4.210938 -10.140625 4.867188 -10.28125 5.578125 -10.28125 C 6.222656 -10.28125 6.8125 -10.175781 7.34375 -9.96875 C 7.882812 -9.769531 8.332031 -9.453125 8.6875 -9.015625 L 8.96875 -10 Z M 8.59375 -4.984375 C 8.59375 -5.503906 8.519531 -5.941406 8.375 -6.296875 C 8.226562 -6.648438 8.035156 -6.9375 7.796875 -7.15625 C 7.566406 -7.382812 7.296875 -7.546875 6.984375 -7.640625 C 6.671875 -7.742188 6.332031 -7.796875 5.96875 -7.796875 C 5.601562 -7.796875 5.257812 -7.722656 4.9375 -7.578125 C 4.625 -7.429688 4.347656 -7.234375 4.109375 -6.984375 C 3.867188 -6.734375 3.679688 -6.4375 3.546875 -6.09375 C 3.410156 -5.75 3.34375 -5.390625 3.34375 -5.015625 C 3.34375 -4.628906 3.410156 -4.265625 3.546875 -3.921875 C 3.679688 -3.585938 3.867188 -3.296875 4.109375 -3.046875 C 4.347656 -2.804688 4.625 -2.609375 4.9375 -2.453125 C 5.257812 -2.304688 5.601562 -2.234375 5.96875 -2.234375 C 6.6875 -2.234375 7.296875 -2.457031 7.796875 -2.90625 C 8.304688 -3.363281 8.570312 -4.054688 8.59375 -4.984375 Z M 8.59375 -4.984375 "/></g></g></g><g fill="#323131" fill-opacity="1"><g transform="translate(323.883552, 152.738442)"><g><path d="M 10.984375 -14.71875 L 10.984375 0 L 8.609375 0 L 8.203125 -0.859375 C 7.890625 -0.546875 7.460938 -0.285156 6.921875 -0.078125 C 6.378906 0.128906 5.8125 0.234375 5.21875 0.234375 C 4.507812 0.234375 3.851562 0.0976562 3.25 -0.171875 C 2.644531 -0.441406 2.125 -0.816406 1.6875 -1.296875 C 1.25 -1.773438 0.90625 -2.332031 0.65625 -2.96875 C 0.40625 -3.613281 0.28125 -4.296875 0.28125 -5.015625 C 0.28125 -5.742188 0.40625 -6.425781 0.65625 -7.0625 C 0.90625 -7.695312 1.25 -8.253906 1.6875 -8.734375 C 2.125 -9.210938 2.644531 -9.585938 3.25 -9.859375 C 3.851562 -10.140625 4.507812 -10.28125 5.21875 -10.28125 C 5.851562 -10.28125 6.414062 -10.207031 6.90625 -10.0625 C 7.394531 -9.914062 7.828125 -9.664062 8.203125 -9.3125 L 8.203125 -14.71875 Z M 8.203125 -4.984375 C 8.203125 -5.503906 8.132812 -5.941406 8 -6.296875 C 7.863281 -6.648438 7.675781 -6.9375 7.4375 -7.15625 C 7.195312 -7.382812 6.914062 -7.546875 6.59375 -7.640625 C 6.28125 -7.742188 5.941406 -7.796875 5.578125 -7.796875 C 5.210938 -7.796875 4.875 -7.722656 4.5625 -7.578125 C 4.25 -7.429688 3.972656 -7.234375 3.734375 -6.984375 C 3.503906 -6.734375 3.320312 -6.4375 3.1875 -6.09375 C 3.050781 -5.75 2.984375 -5.390625 2.984375 -5.015625 C 2.984375 -4.628906 3.050781 -4.265625 3.1875 -3.921875 C 3.320312 -3.585938 3.503906 -3.296875 3.734375 -3.046875 C 3.972656 -2.804688 4.25 -2.609375 4.5625 -2.453125 C 4.875 -2.304688 5.210938 -2.234375 5.578125 -2.234375 C 6.304688 -2.234375 6.921875 -2.457031 7.421875 -2.90625 C 7.929688 -3.363281 8.191406 -4.054688 8.203125 -4.984375 Z M 8.203125 -4.984375 "/></g></g></g><g fill="#323131" fill-opacity="1"><g transform="translate(335.878776, 152.738442)"><g/></g></g><g fill="#323131" fill-opacity="1"><g transform="translate(341.523589, 152.738442)"><g><path d="M 4.015625 -2.765625 L 9.875 -2.765625 L 9.875 0 L 0.953125 0 L 0.953125 -14.296875 L 4.015625 -14.296875 Z M 4.015625 -2.765625 "/></g></g></g><g fill="#323131" fill-opacity="1"><g transform="translate(351.704409, 152.738442)"><g><path d="M 5.84375 -10.28125 C 6.59375 -10.28125 7.273438 -10.128906 7.890625 -9.828125 C 8.515625 -9.523438 9.046875 -9.128906 9.484375 -8.640625 C 9.929688 -8.148438 10.273438 -7.582031 10.515625 -6.9375 C 10.765625 -6.300781 10.890625 -5.648438 10.890625 -4.984375 C 10.890625 -4.578125 10.832031 -4.144531 10.71875 -3.6875 L 3.59375 -3.6875 C 3.851562 -3.226562 4.234375 -2.84375 4.734375 -2.53125 C 5.234375 -2.21875 5.769531 -2.0625 6.34375 -2.0625 C 6.925781 -2.0625 7.4375 -2.109375 7.875 -2.203125 C 8.3125 -2.296875 8.722656 -2.414062 9.109375 -2.5625 L 10.03125 -0.84375 C 9.539062 -0.5 8.972656 -0.234375 8.328125 -0.046875 C 7.691406 0.140625 7.007812 0.234375 6.28125 0.234375 C 5.488281 0.234375 4.75 0.0976562 4.0625 -0.171875 C 3.382812 -0.441406 2.789062 -0.8125 2.28125 -1.28125 C 1.769531 -1.757812 1.363281 -2.320312 1.0625 -2.96875 C 0.769531 -3.613281 0.625 -4.296875 0.625 -5.015625 C 0.625 -5.734375 0.757812 -6.410156 1.03125 -7.046875 C 1.300781 -7.679688 1.671875 -8.238281 2.140625 -8.71875 C 2.617188 -9.195312 3.171875 -9.578125 3.796875 -9.859375 C 4.429688 -10.140625 5.113281 -10.28125 5.84375 -10.28125 Z M 8.125 -5.84375 C 7.957031 -6.425781 7.664062 -6.894531 7.25 -7.25 C 6.832031 -7.613281 6.363281 -7.796875 5.84375 -7.796875 C 5.300781 -7.796875 4.8125 -7.613281 4.375 -7.25 C 3.945312 -6.894531 3.648438 -6.425781 3.484375 -5.84375 Z M 8.125 -5.84375 "/></g></g></g><g fill="#323131" fill-opacity="1"><g transform="translate(363.800435, 152.738442)"><g><path d="M 7.25 -5.234375 C 7.988281 -4.710938 8.359375 -3.96875 8.359375 -3 C 8.359375 -2.5625 8.253906 -2.144531 8.046875 -1.75 C 7.835938 -1.363281 7.550781 -1.019531 7.1875 -0.71875 C 6.832031 -0.425781 6.410156 -0.195312 5.921875 -0.03125 C 5.441406 0.132812 4.925781 0.21875 4.375 0.21875 C 3.957031 0.21875 3.550781 0.164062 3.15625 0.0625 C 2.757812 -0.0390625 2.390625 -0.1875 2.046875 -0.375 C 1.710938 -0.570312 1.421875 -0.800781 1.171875 -1.0625 C 0.929688 -1.320312 0.75 -1.613281 0.625 -1.9375 C 0.9375 -2.082031 1.28125 -2.242188 1.65625 -2.421875 C 2.03125 -2.609375 2.359375 -2.773438 2.640625 -2.921875 C 2.765625 -2.722656 2.953125 -2.535156 3.203125 -2.359375 C 3.460938 -2.191406 3.8125 -2.109375 4.25 -2.109375 C 4.707031 -2.109375 5.039062 -2.21875 5.25 -2.4375 C 5.46875 -2.65625 5.578125 -2.859375 5.578125 -3.046875 C 5.578125 -3.179688 5.503906 -3.304688 5.359375 -3.421875 C 5.210938 -3.535156 5.046875 -3.625 4.859375 -3.6875 C 4.585938 -3.789062 4.363281 -3.847656 4.1875 -3.859375 C 4.019531 -3.867188 3.820312 -3.90625 3.59375 -3.96875 C 2.863281 -4.144531 2.304688 -4.375 1.921875 -4.65625 C 1.535156 -4.945312 1.253906 -5.238281 1.078125 -5.53125 C 0.910156 -5.832031 0.816406 -6.117188 0.796875 -6.390625 C 0.773438 -6.660156 0.765625 -6.875 0.765625 -7.03125 C 0.765625 -7.457031 0.859375 -7.863281 1.046875 -8.25 C 1.234375 -8.644531 1.488281 -8.988281 1.8125 -9.28125 C 2.144531 -9.570312 2.53125 -9.800781 2.96875 -9.96875 C 3.40625 -10.144531 3.875 -10.234375 4.375 -10.234375 C 4.789062 -10.234375 5.1875 -10.171875 5.5625 -10.046875 C 5.9375 -9.929688 6.273438 -9.765625 6.578125 -9.546875 C 6.890625 -9.335938 7.15625 -9.082031 7.375 -8.78125 C 7.601562 -8.488281 7.769531 -8.160156 7.875 -7.796875 L 5.71875 -7.078125 C 5.644531 -7.316406 5.484375 -7.507812 5.234375 -7.65625 C 4.984375 -7.800781 4.71875 -7.875 4.4375 -7.875 C 4.15625 -7.875 3.925781 -7.78125 3.75 -7.59375 C 3.570312 -7.40625 3.484375 -7.21875 3.484375 -7.03125 C 3.484375 -6.800781 3.566406 -6.625 3.734375 -6.5 C 3.898438 -6.375 4.085938 -6.285156 4.296875 -6.234375 C 4.441406 -6.203125 4.582031 -6.175781 4.71875 -6.15625 C 4.863281 -6.132812 5.003906 -6.113281 5.140625 -6.09375 C 5.609375 -5.976562 6.015625 -5.851562 6.359375 -5.71875 C 6.703125 -5.582031 7 -5.421875 7.25 -5.234375 Z M 7.25 -5.234375 "/></g></g></g><g fill="#323131" fill-opacity="1"><g transform="translate(372.832132, 152.738442)"><g><path d="M 7.25 -5.234375 C 7.988281 -4.710938 8.359375 -3.96875 8.359375 -3 C 8.359375 -2.5625 8.253906 -2.144531 8.046875 -1.75 C 7.835938 -1.363281 7.550781 -1.019531 7.1875 -0.71875 C 6.832031 -0.425781 6.410156 -0.195312 5.921875 -0.03125 C 5.441406 0.132812 4.925781 0.21875 4.375 0.21875 C 3.957031 0.21875 3.550781 0.164062 3.15625 0.0625 C 2.757812 -0.0390625 2.390625 -0.1875 2.046875 -0.375 C 1.710938 -0.570312 1.421875 -0.800781 1.171875 -1.0625 C 0.929688 -1.320312 0.75 -1.613281 0.625 -1.9375 C 0.9375 -2.082031 1.28125 -2.242188 1.65625 -2.421875 C 2.03125 -2.609375 2.359375 -2.773438 2.640625 -2.921875 C 2.765625 -2.722656 2.953125 -2.535156 3.203125 -2.359375 C 3.460938 -2.191406 3.8125 -2.109375 4.25 -2.109375 C 4.707031 -2.109375 5.039062 -2.21875 5.25 -2.4375 C 5.46875 -2.65625 5.578125 -2.859375 5.578125 -3.046875 C 5.578125 -3.179688 5.503906 -3.304688 5.359375 -3.421875 C 5.210938 -3.535156 5.046875 -3.625 4.859375 -3.6875 C 4.585938 -3.789062 4.363281 -3.847656 4.1875 -3.859375 C 4.019531 -3.867188 3.820312 -3.90625 3.59375 -3.96875 C 2.863281 -4.144531 2.304688 -4.375 1.921875 -4.65625 C 1.535156 -4.945312 1.253906 -5.238281 1.078125 -5.53125 C 0.910156 -5.832031 0.816406 -6.117188 0.796875 -6.390625 C 0.773438 -6.660156 0.765625 -6.875 0.765625 -7.03125 C 0.765625 -7.457031 0.859375 -7.863281 1.046875 -8.25 C 1.234375 -8.644531 1.488281 -8.988281 1.8125 -9.28125 C 2.144531 -9.570312 2.53125 -9.800781 2.96875 -9.96875 C 3.40625 -10.144531 3.875 -10.234375 4.375 -10.234375 C 4.789062 -10.234375 5.1875 -10.171875 5.5625 -10.046875 C 5.9375 -9.929688 6.273438 -9.765625 6.578125 -9.546875 C 6.890625 -9.335938 7.15625 -9.082031 7.375 -8.78125 C 7.601562 -8.488281 7.769531 -8.160156 7.875 -7.796875 L 5.71875 -7.078125 C 5.644531 -7.316406 5.484375 -7.507812 5.234375 -7.65625 C 4.984375 -7.800781 4.71875 -7.875 4.4375 -7.875 C 4.15625 -7.875 3.925781 -7.78125 3.75 -7.59375 C 3.570312 -7.40625 3.484375 -7.21875 3.484375 -7.03125 C 3.484375 -6.800781 3.566406 -6.625 3.734375 -6.5 C 3.898438 -6.375 4.085938 -6.285156 4.296875 -6.234375 C 4.441406 -6.203125 4.582031 -6.175781 4.71875 -6.15625 C 4.863281 -6.132812 5.003906 -6.113281 5.140625 -6.09375 C 5.609375 -5.976562 6.015625 -5.851562 6.359375 -5.71875 C 6.703125 -5.582031 7 -5.421875 7.25 -5.234375 Z M 7.25 -5.234375 "/></g></g></g><g fill="#323131" fill-opacity="1"><g transform="translate(381.86383, 152.738442)"><g/></g></g><g fill="#323131" fill-opacity="1"><g transform="translate(387.508643, 152.738442)"><g><path d="M 0.46875 -14.296875 L 10.796875 -14.296875 L 10.796875 -11.515625 L 7.15625 -11.515625 L 7.15625 0 L 4.109375 0 L 4.109375 -11.515625 L 0.46875 -11.515625 Z M 0.46875 -14.296875 "/></g></g></g><g fill="#323131" fill-opacity="1"><g transform="translate(398.878904, 152.738442)"><g><path d="M 3.640625 -8.609375 C 3.773438 -8.816406 3.929688 -9.019531 4.109375 -9.21875 C 4.285156 -9.414062 4.492188 -9.59375 4.734375 -9.75 C 4.972656 -9.90625 5.25 -10.03125 5.5625 -10.125 C 5.875 -10.21875 6.222656 -10.265625 6.609375 -10.265625 C 7.066406 -10.265625 7.597656 -10.179688 8.203125 -10.015625 L 7.9375 -7.53125 C 7.789062 -7.5625 7.644531 -7.597656 7.5 -7.640625 C 7.375 -7.660156 7.238281 -7.679688 7.09375 -7.703125 C 6.945312 -7.722656 6.8125 -7.734375 6.6875 -7.734375 C 6.257812 -7.734375 5.859375 -7.671875 5.484375 -7.546875 C 5.117188 -7.429688 4.800781 -7.265625 4.53125 -7.046875 C 4.257812 -6.835938 4.039062 -6.582031 3.875 -6.28125 C 3.71875 -5.976562 3.640625 -5.648438 3.640625 -5.296875 L 3.640625 0 L 0.859375 0 L 0.859375 -10 L 3.390625 -10 Z M 3.640625 -8.609375 "/></g></g></g><g fill="#323131" fill-opacity="1"><g transform="translate(407.285638, 152.738442)"><g><path d="M 11.375 -10 L 11.375 0 L 8.96875 0 L 8.6875 -1.0625 C 8.300781 -0.539062 7.832031 -0.191406 7.28125 -0.015625 C 6.738281 0.148438 6.171875 0.234375 5.578125 0.234375 C 4.867188 0.234375 4.210938 0.0976562 3.609375 -0.171875 C 3.015625 -0.441406 2.492188 -0.816406 2.046875 -1.296875 C 1.609375 -1.773438 1.265625 -2.332031 1.015625 -2.96875 C 0.765625 -3.613281 0.640625 -4.296875 0.640625 -5.015625 C 0.640625 -5.742188 0.765625 -6.425781 1.015625 -7.0625 C 1.265625 -7.695312 1.609375 -8.253906 2.046875 -8.734375 C 2.492188 -9.210938 3.015625 -9.585938 3.609375 -9.859375 C 4.210938 -10.140625 4.867188 -10.28125 5.578125 -10.28125 C 6.222656 -10.28125 6.8125 -10.175781 7.34375 -9.96875 C 7.882812 -9.769531 8.332031 -9.453125 8.6875 -9.015625 L 8.96875 -10 Z M 8.59375 -4.984375 C 8.59375 -5.503906 8.519531 -5.941406 8.375 -6.296875 C 8.226562 -6.648438 8.035156 -6.9375 7.796875 -7.15625 C 7.566406 -7.382812 7.296875 -7.546875 6.984375 -7.640625 C 6.671875 -7.742188 6.332031 -7.796875 5.96875 -7.796875 C 5.601562 -7.796875 5.257812 -7.722656 4.9375 -7.578125 C 4.625 -7.429688 4.347656 -7.234375 4.109375 -6.984375 C 3.867188 -6.734375 3.679688 -6.4375 3.546875 -6.09375 C 3.410156 -5.75 3.34375 -5.390625 3.34375 -5.015625 C 3.34375 -4.628906 3.410156 -4.265625 3.546875 -3.921875 C 3.679688 -3.585938 3.867188 -3.296875 4.109375 -3.046875 C 4.347656 -2.804688 4.625 -2.609375 4.9375 -2.453125 C 5.257812 -2.304688 5.601562 -2.234375 5.96875 -2.234375 C 6.6875 -2.234375 7.296875 -2.457031 7.796875 -2.90625 C 8.304688 -3.363281 8.570312 -4.054688 8.59375 -4.984375 Z M 8.59375 -4.984375 "/></g></g></g><g fill="#323131" fill-opacity="1"><g transform="translate(419.643734, 152.738442)"><g><path d="M 8.78125 -10 L 11.796875 -10 L 7.765625 0 L 4.171875 0 L 0.140625 -10 L 3.125 -10 L 5.96875 -2.59375 Z M 8.78125 -10 "/></g></g></g><g fill="#323131" fill-opacity="1"><g transform="translate(431.719592, 152.738442)"><g><path d="M 5.84375 -10.28125 C 6.59375 -10.28125 7.273438 -10.128906 7.890625 -9.828125 C 8.515625 -9.523438 9.046875 -9.128906 9.484375 -8.640625 C 9.929688 -8.148438 10.273438 -7.582031 10.515625 -6.9375 C 10.765625 -6.300781 10.890625 -5.648438 10.890625 -4.984375 C 10.890625 -4.578125 10.832031 -4.144531 10.71875 -3.6875 L 3.59375 -3.6875 C 3.851562 -3.226562 4.234375 -2.84375 4.734375 -2.53125 C 5.234375 -2.21875 5.769531 -2.0625 6.34375 -2.0625 C 6.925781 -2.0625 7.4375 -2.109375 7.875 -2.203125 C 8.3125 -2.296875 8.722656 -2.414062 9.109375 -2.5625 L 10.03125 -0.84375 C 9.539062 -0.5 8.972656 -0.234375 8.328125 -0.046875 C 7.691406 0.140625 7.007812 0.234375 6.28125 0.234375 C 5.488281 0.234375 4.75 0.0976562 4.0625 -0.171875 C 3.382812 -0.441406 2.789062 -0.8125 2.28125 -1.28125 C 1.769531 -1.757812 1.363281 -2.320312 1.0625 -2.96875 C 0.769531 -3.613281 0.625 -4.296875 0.625 -5.015625 C 0.625 -5.734375 0.757812 -6.410156 1.03125 -7.046875 C 1.300781 -7.679688 1.671875 -8.238281 2.140625 -8.71875 C 2.617188 -9.195312 3.171875 -9.578125 3.796875 -9.859375 C 4.429688 -10.140625 5.113281 -10.28125 5.84375 -10.28125 Z M 8.125 -5.84375 C 7.957031 -6.425781 7.664062 -6.894531 7.25 -7.25 C 6.832031 -7.613281 6.363281 -7.796875 5.84375 -7.796875 C 5.300781 -7.796875 4.8125 -7.613281 4.375 -7.25 C 3.945312 -6.894531 3.648438 -6.425781 3.484375 -5.84375 Z M 8.125 -5.84375 "/></g></g></g><g fill="#323131" fill-opacity="1"><g transform="translate(443.815618, 152.738442)"><g><path d="M 0.984375 -14.734375 L 3.765625 -14.734375 L 3.765625 0 L 0.984375 0 Z M 0.984375 -14.734375 "/></g></g></g><g fill="#323131" fill-opacity="1"><g transform="translate(448.492744, 152.738442)"><g><path d="M 0.984375 -14.734375 L 3.765625 -14.734375 L 3.765625 0 L 0.984375 0 Z M 0.984375 -14.734375 "/></g></g></g><g fill="#323131" fill-opacity="1"><g transform="translate(453.169871, 152.738442)"><g><path d="M 5.84375 -10.28125 C 6.59375 -10.28125 7.273438 -10.128906 7.890625 -9.828125 C 8.515625 -9.523438 9.046875 -9.128906 9.484375 -8.640625 C 9.929688 -8.148438 10.273438 -7.582031 10.515625 -6.9375 C 10.765625 -6.300781 10.890625 -5.648438 10.890625 -4.984375 C 10.890625 -4.578125 10.832031 -4.144531 10.71875 -3.6875 L 3.59375 -3.6875 C 3.851562 -3.226562 4.234375 -2.84375 4.734375 -2.53125 C 5.234375 -2.21875 5.769531 -2.0625 6.34375 -2.0625 C 6.925781 -2.0625 7.4375 -2.109375 7.875 -2.203125 C 8.3125 -2.296875 8.722656 -2.414062 9.109375 -2.5625 L 10.03125 -0.84375 C 9.539062 -0.5 8.972656 -0.234375 8.328125 -0.046875 C 7.691406 0.140625 7.007812 0.234375 6.28125 0.234375 C 5.488281 0.234375 4.75 0.0976562 4.0625 -0.171875 C 3.382812 -0.441406 2.789062 -0.8125 2.28125 -1.28125 C 1.769531 -1.757812 1.363281 -2.320312 1.0625 -2.96875 C 0.769531 -3.613281 0.625 -4.296875 0.625 -5.015625 C 0.625 -5.734375 0.757812 -6.410156 1.03125 -7.046875 C 1.300781 -7.679688 1.671875 -8.238281 2.140625 -8.71875 C 2.617188 -9.195312 3.171875 -9.578125 3.796875 -9.859375 C 4.429688 -10.140625 5.113281 -10.28125 5.84375 -10.28125 Z M 8.125 -5.84375 C 7.957031 -6.425781 7.664062 -6.894531 7.25 -7.25 C 6.832031 -7.613281 6.363281 -7.796875 5.84375 -7.796875 C 5.300781 -7.796875 4.8125 -7.613281 4.375 -7.25 C 3.945312 -6.894531 3.648438 -6.425781 3.484375 -5.84375 Z M 8.125 -5.84375 "/></g></g></g><g fill="#323131" fill-opacity="1"><g transform="translate(465.265897, 152.738442)"><g><path d="M 10.984375 -14.71875 L 10.984375 0 L 8.609375 0 L 8.203125 -0.859375 C 7.890625 -0.546875 7.460938 -0.285156 6.921875 -0.078125 C 6.378906 0.128906 5.8125 0.234375 5.21875 0.234375 C 4.507812 0.234375 3.851562 0.0976562 3.25 -0.171875 C 2.644531 -0.441406 2.125 -0.816406 1.6875 -1.296875 C 1.25 -1.773438 0.90625 -2.332031 0.65625 -2.96875 C 0.40625 -3.613281 0.28125 -4.296875 0.28125 -5.015625 C 0.28125 -5.742188 0.40625 -6.425781 0.65625 -7.0625 C 0.90625 -7.695312 1.25 -8.253906 1.6875 -8.734375 C 2.125 -9.210938 2.644531 -9.585938 3.25 -9.859375 C 3.851562 -10.140625 4.507812 -10.28125 5.21875 -10.28125 C 5.851562 -10.28125 6.414062 -10.207031 6.90625 -10.0625 C 7.394531 -9.914062 7.828125 -9.664062 8.203125 -9.3125 L 8.203125 -14.71875 Z M 8.203125 -4.984375 C 8.203125 -5.503906 8.132812 -5.941406 8 -6.296875 C 7.863281 -6.648438 7.675781 -6.9375 7.4375 -7.15625 C 7.195312 -7.382812 6.914062 -7.546875 6.59375 -7.640625 C 6.28125 -7.742188 5.941406 -7.796875 5.578125 -7.796875 C 5.210938 -7.796875 4.875 -7.722656 4.5625 -7.578125 C 4.25 -7.429688 3.972656 -7.234375 3.734375 -6.984375 C 3.503906 -6.734375 3.320312 -6.4375 3.1875 -6.09375 C 3.050781 -5.75 2.984375 -5.390625 2.984375 -5.015625 C 2.984375 -4.628906 3.050781 -4.265625 3.1875 -3.921875 C 3.320312 -3.585938 3.503906 -3.296875 3.734375 -3.046875 C 3.972656 -2.804688 4.25 -2.609375 4.5625 -2.453125 C 4.875 -2.304688 5.210938 -2.234375 5.578125 -2.234375 C 6.304688 -2.234375 6.921875 -2.457031 7.421875 -2.90625 C 7.929688 -3.363281 8.191406 -4.054688 8.203125 -4.984375 Z M 8.203125 -4.984375 "/></g></g></g></svg>